PathFileType  4	(X/Y/Z) C:\Users\antoi\Documents\MyRepositories\mobilecap\ResultsAnalysis
DataRate	CameraRate	NumFrames	NumMarkers	Units	OrigDataRate	OrigDataStartFrame	OrigNumFrames
100.0	100.0	4	51	mm	100.0	131	261
Frame#	Time	r_knee			r_shank_antsup			r_ankle			r_calc			r_5meta			r_toe			L_knee			L_shank_antsup			L_ankle			L_calc			L_5meta			L_toe			r_sh2			r_sh3			r_sh4			L_sh2			L_sh3			r_thigh1			r_thigh2			r_thigh3			r_thigh4			r_thigh5			L_thigh1			L_thigh2			L_thigh3			L_thigh4			r.ASIS			r.PSIS			L.ASIS			L.PSIS			C7			R_Shoulder			L_Shoulder			R_Sternum			L_Sternum			R_humerus			R_elbow_med			R_elbow_lat			R_forearm			R_wrist_radius			R_wrist_ulna			L_humerus			L_elbow_med			L_elbow_lat			L_forearm			L_wrist_radius			L_wrist_ulna			R_HJC			L_HJC			R_HJC_reg			L_HJC_reg			
		X1	Y1	Z1	X2	Y2	Z2	X3	Y3	Z3	X4	Y4	Z4	X5	Y5	Z5	X6	Y6	Z6	X7	Y7	Z7	X8	Y8	Z8	X9	Y9	Z9	X10	Y10	Z10	X11	Y11	Z11	X12	Y12	Z12	X13	Y13	Z13	X14	Y14	Z14	X15	Y15	Z15	X16	Y16	Z16	X17	Y17	Z17	X18	Y18	Z18	X19	Y19	Z19	X20	Y20	Z20	X21	Y21	Z21	X22	Y22	Z22	X23	Y23	Z23	X24	Y24	Z24	X25	Y25	Z25	X26	Y26	Z26	X27	Y27	Z27	X28	Y28	Z28	X29	Y29	Z29	X30	Y30	Z30	X31	Y31	Z31	X32	Y32	Z32	X33	Y33	Z33	X34	Y34	Z34	X35	Y35	Z35	X36	Y36	Z36	X37	Y37	Z37	X38	Y38	Z38	X39	Y39	Z39	X40	Y40	Z40	X41	Y41	Z41	X42	Y42	Z42	X43	Y43	Z43	X44	Y44	Z44	X45	Y45	Z45	X46	Y46	Z46	X47	Y47	Z47	X48	Y48	Z48	X49	Y49	Z49	X50	Y50	Z50	X51	Y51	Z51	

131	1.30000000	-418.90104	767.60011	-415.56404	-364.89246	682.43050	-408.83561	-365.05613	335.80981	-414.78381	-441.15300	321.36074	-480.57372	-282.64328	207.66363	-387.58679	-207.15149	235.95944	-424.60983	-441.20132	785.90006	-826.93274	-435.67407	699.55551	-854.96196	-423.82969	358.14819	-828.00724	-493.83087	321.50875	-758.24800	-329.56848	250.05177	-871.40322	-255.81920	274.92516	-825.86180	-367.11945	573.12981	-378.38218	-436.34909	689.93590	-382.76122	-449.00847	574.83799	-373.60930	-521.44807	695.63362	-829.23471	-503.14140	574.86865	-835.07270	-431.60433	1095.38372	-413.58973	-397.75758	991.74014	-414.42860	-439.58482	950.81861	-384.84256	-535.74321	1054.63944	-417.52887	-491.75574	949.23425	-406.07133	-429.97824	1083.60503	-810.89658	-388.60848	949.12785	-813.93453	-534.06780	1051.54134	-826.99077	-498.09208	919.14775	-832.67898	-440.91586	1290.87108	-476.54654	-619.77243	1314.97734	-531.68853	-453.67441	1304.16325	-719.96743	-629.91572	1324.26728	-641.39063	-414.28054	1847.06172	-587.74085	-383.53882	1799.28407	-433.39986	-413.11925	1794.33313	-738.03364	-327.17156	1722.33290	-558.24172	-333.05869	1717.67776	-619.77917	-420.96555	1720.51381	-299.62884	-530.24058	1550.05422	-211.49591	-541.51616	1632.88985	-170.13253	-376.85548	1660.56992	-182.20732	-297.15253	1688.85028	-221.70719	-293.52982	1660.95450	-185.98405	-450.23098	1727.39702	-852.56183	-466.09488	1491.15524	-936.02878	-471.85005	1559.66860	-993.43866	-401.24842	1592.37501	-990.52827	-248.67569	1645.39250	-935.92191	-233.81080	1617.47570	-961.94366	-524.61128	1179.00027	-496.17878	-540.60391	1197.78619	-701.66364	-500.94530	1212.21509	-511.97337	-515.72615	1225.75180	-671.83924	
132	1.31000000	-404.89752	746.91158	-415.05507	-349.60168	663.15238	-407.38112	-343.45307	316.13509	-411.57295	-419.27618	302.05509	-477.33229	-260.21095	187.57813	-386.06697	-184.74985	216.82778	-422.27806	-425.50174	766.56342	-829.50249	-418.55955	680.49050	-857.80396	-397.47787	338.75701	-832.44245	-467.52861	303.47193	-762.36985	-302.47023	229.09980	-872.72502	-229.08821	255.63222	-827.65213	-349.95888	553.95635	-376.28095	-421.36844	669.33733	-381.83083	-431.93603	554.11383	-372.64163	-504.06388	674.57574	-831.14310	-483.10811	554.28523	-837.54062	-418.97650	1074.68685	-414.54035	-384.60909	970.97305	-414.82467	-426.90973	930.11793	-385.09557	-523.00623	1033.44273	-419.43033	-478.77401	928.37010	-406.96275	-416.32827	1064.47712	-813.14950	-374.19159	930.28570	-816.36108	-520.27242	1031.66322	-829.40231	-483.43626	899.41789	-834.68882	-428.29420	1269.87941	-477.80639	-607.28227	1293.35295	-532.68301	-441.63294	1284.09110	-720.68630	-617.85833	1303.20943	-642.29198	-402.36389	1826.42505	-587.23709	-370.50756	1778.61516	-433.78530	-402.75052	1775.31655	-737.31999	-315.29061	1701.52511	-558.61108	-321.29863	1697.06533	-620.34203	-411.15766	1701.48305	-300.22747	-529.93770	1535.58951	-213.76311	-537.83713	1618.94660	-172.55242	-372.70763	1640.80897	-184.78018	-292.38570	1666.27274	-224.64747	-289.44631	1638.07408	-189.08455	-444.49474	1709.96920	-851.46914	-470.74221	1475.15421	-936.03326	-475.82574	1544.11132	-992.86668	-404.56461	1575.64168	-990.90069	-250.62096	1624.90104	-936.90679	-236.57790	1597.01438	-963.27250	-511.63314	1157.71069	-497.70724	-527.95221	1177.29143	-703.09259	-487.84177	1191.05387	-513.40520	-503.22635	1205.39149	-672.83904	
133	1.32000000	-389.44685	725.61718	-414.30276	-333.25816	642.91947	-405.74217	-323.12426	295.88162	-408.53333	-398.89973	281.88182	-474.03983	-239.28099	166.92285	-383.87688	-163.93693	196.47594	-420.05436	-408.86246	746.69768	-832.25778	-400.59032	661.09753	-860.69196	-371.73461	318.84682	-836.84274	-442.00980	285.21381	-766.67339	-275.98911	207.28237	-873.26333	-203.09447	235.55471	-828.50026	-332.56605	533.72625	-374.28559	-405.38149	648.23634	-380.55749	-414.70919	532.80708	-371.63387	-485.82269	653.58543	-833.22059	-462.57979	533.73351	-840.25123	-406.44221	1052.98313	-415.48667	-371.42798	949.18760	-415.04286	-413.93264	908.61445	-385.30695	-510.15393	1011.21746	-421.47328	-465.56709	906.53789	-407.60367	-402.70531	1044.84309	-815.45650	-359.34957	911.04617	-818.86814	-506.39656	1010.97275	-831.70396	-468.28214	879.08633	-837.06479	-415.94507	1247.80336	-479.06523	-594.92231	1270.82921	-533.58728	-429.82117	1263.14355	-721.35955	-606.10327	1281.22744	-643.07000	-390.49122	1804.59548	-586.66573	-357.46592	1756.45667	-434.25342	-392.45046	1755.05618	-736.58118	-303.63610	1679.58076	-558.96403	-309.50100	1675.26276	-620.76997	-401.40556	1680.75421	-301.13260	-529.67011	1519.37444	-217.38387	-533.75761	1602.90684	-175.58400	-368.51590	1619.38886	-188.09590	-287.64094	1642.27009	-228.22291	-285.42480	1613.73348	-192.82688	-439.06450	1691.50605	-850.11995	-475.88875	1457.99607	-934.91066	-480.23447	1527.49954	-991.42626	-408.26815	1557.88818	-990.68481	-253.01114	1603.24284	-937.16530	-239.81664	1575.58674	-964.13460	-498.92129	1135.40740	-499.26929	-515.61519	1155.93466	-704.53213	-474.94277	1169.01590	-514.71220	-491.17723	1184.11414	-673.66920	
134	1.33000000	-372.47703	704.03474	-413.34105	-315.40455	621.97365	-404.24143	-304.34005	275.04082	-405.81295	-380.28125	261.28957	-471.09107	-220.82159	145.75755	-380.83211	-145.39040	174.82154	-417.44819	-390.99477	726.61714	-835.12906	-381.36420	641.64693	-863.74169	-347.30444	298.30417	-840.90394	-417.92911	266.19505	-770.72102	-250.36162	185.00869	-872.55626	-178.11637	215.59863	-828.25679	-314.56267	512.67800	-372.61920	-387.68800	626.78976	-379.31937	-396.72595	511.39190	-370.28399	-466.41917	632.85320	-835.85668	-441.35063	513.33790	-843.13029	-393.93885	1030.53727	-416.22415	-358.09820	926.93098	-415.03539	-400.44296	886.53979	-385.34139	-497.10080	988.02321	-423.39930	-451.82244	883.81335	-407.90946	-389.30914	1024.77205	-817.61931	-344.02418	891.71138	-821.49337	-492.48494	989.43078	-833.78239	-452.35398	858.19393	-839.97562	-403.95695	1224.63613	-480.43305	-582.90660	1247.41398	-534.31629	-418.52751	1241.40266	-721.84089	-594.71940	1258.30462	-643.78799	-378.61431	1781.46886	-586.24053	-344.34377	1732.68458	-434.70687	-382.14789	1733.35994	-735.91662	-291.95722	1656.26458	-559.22204	-297.70280	1652.19909	-621.19881	-391.68331	1657.98088	-302.56678	-528.91196	1501.27110	-222.42129	-529.33422	1584.34235	-179.22733	-364.14372	1595.88772	-192.18404	-282.75519	1616.49981	-232.60019	-281.45373	1587.64705	-197.23886	-433.79264	1671.72385	-848.35349	-481.49101	1439.38017	-932.70202	-485.01128	1509.50898	-988.97001	-412.29969	1538.69973	-989.47285	-255.82168	1580.25497	-936.68741	-243.52544	1552.75735	-964.23784	-486.59077	1112.08016	-500.89825	-503.76207	1133.76911	-706.00128	-462.57358	1146.26040	-515.99154	-479.65532	1162.00901	-674.29922	
